{"title":"1941.1979.EXTENDED.1080p.BluRay.X264-AMIABLE","uid":12021997,"size":11737615410,"categoryP":"video","categoryS":"hd___movies","magnet":"?xt=urn:btih:08d0862ed89729a9bf2c782cc143255e41e64a60&amp;dn=1941.1979.EXTENDED.1080p.BluRay.X264-AMIABLE&amp;tr=udp%3A%2F%2Ftracker.openbittorrent.com%3A80&amp;tr=udp%3A%2F%2Fopen.demonii.com%3A1337&amp;tr=udp%3A%2F%2Ftracker.coppersurfer.tk%3A6969&amp;tr=udp%3A%2F%2Fexodus.desync.com%3A6969","seeders":1,"leechers":0,"uploader":null,"files":3,"time":1434413120,"description":"Video\nID                                       : 1\nFormat                                   : AVC\nFormat/Info                              : Advanced Video Codec\nFormat profile                           : &lt;a class=&quot;__cf_email__&quot; href=&quot;/cdn-cgi/l/email-protection&quot; data-cfemail=&quot;bcf4d5dbd4fcf088928d&quot;&gt;[email&amp;#160;protected]&lt;/a&gt;&lt;script data-cfhash='f9e31' type=&quot;text/javascript&quot;&gt;\n/* &lt;![CDATA[ */!function(){try{var t=&quot;currentScript&quot;in document?document.currentScript:function(){for(var t=document.getElementsByTagName(&quot;script&quot;),e=t.length;e--;)if(t[e].getAttribute(&quot;data-cfhash&quot;))return t[e]}();if(t&amp;&amp;t.previousSibling){var e,r,n,i,c=t.previousSibling,a=c.getAttribute(&quot;data-cfemail&quot;);if(a){for(e=&quot;&quot;,r=parseInt(a.substr(0,2),16),n=2;a.length-n;n+=2)i=parseInt(a.substr(n,2),16)^r,e+=String.fromCharCode(i);e=document.createTextNode(e),c.parentNode.replaceChild(e,c)}t.parentNode.removeChild(t);}}catch(u){}}()/* ]]&gt; */&lt;/script&gt;\nFormat settings, CABAC                   : Yes\nFormat settings, ReFrames                : 5 frames\nCodec ID                                 : V_MPEG4/ISO/AVC\nDuration                                 : 2h 26mn\nBit rate                                 : 9 201 Kbps\nWidth                                    : 1 920 pixels\nHeight                                   : 816 pixels\nDisplay aspect ratio                     : 2.35:1\nFrame rate mode                          : Constant\nFrame rate                               : 23.976 fps\nColor space                              : YUV\nChroma subsampling                       : 4:2:0\nBit depth                                : 8 bits\nScan type                                : Progressive\nBits/(Pixel*Frame)                       : 0.245\nStream size                              : 9.17 GiB (84%)\nWriting library                          : x264 core 142 r2479 dd79a61\nEncoding settings                        : cabac=1 / ref=5 / deblock=1:-3:-3 / analyse=0x3:0x113 / me=umh / subme=8 / psy=1 / psy_rd=1.00:0.15 / mixed_ref=1 / me_range=16 / chroma_me=1 / trellis=1 / 8x8dct=1 / cqm=0 / deadzone=21,11 / fast_pskip=1 / chroma_qp_offset=-3 / threads=12 / lookahead_threads=2 / sliced_threads=0 / nr=0 / decimate=1 / interlaced=0 / bluray_compat=0 / constrained_intra=0 / bframes=3 / b_pyramid=2 / b_adapt=2 / b_bias=0 / direct=3 / weightb=1 / open_gop=0 / weightp=2 / keyint=240 / keyint_min=24 / scenecut=40 / intra_refresh=0 / rc_lookahead=50 / rc=2pass / mbtree=1 / bitrate=9201 / ratetol=1.0 / qcomp=0.60 / qpmin=0 / qpmax=69 / qpstep=4 / cplxblur=20.0 / qblur=0.5 / ip_ratio=1.40 / aq=1:1.00\nLanguage                                 : English\nDefault                                  : Yes\nForced                                   : No\n\nAudio\nID                                       : 2\nFormat                                   : DTS\nFormat/Info                              : Digital Theater Systems\nMode                                     : 16\nFormat settings, Endianness              : Big\nCodec ID                                 : A_DTS\nDuration                                 : 2h 26mn\nBit rate mode                            : Constant\nBit rate                                 : 1 509 Kbps\nChannel(s)                               : 6 channels\nChannel positions                        : Front: L C R, Side: L R, LFE\nSampling rate                            : 48.0 KHz\nBit depth                                : 24 bits\nCompression mode                         : Lossy\nStream size                              : 1.54 GiB (14%)\nLanguage                                 : English\nDefault                                  : Yes\nForced                                   : No\n\nText #1\nID                                       : 3\nFormat                                   : UTF-8\nCodec ID                                 : S_TEXT/UTF8\nCodec ID/Info                            : UTF-8 Plain Text\nTitle                                    : SDH\nLanguage                                 : English\nDefault                                  : No\nForced                                   : No\n\nText #2\nID                                       : 4\nFormat                                   : UTF-8\nCodec ID                                 : S_TEXT/UTF8\nCodec ID/Info                            : UTF-8 Plain Text\nLanguage                                 : English\nDefault                                  : No\nForced                                   : No\n\nMenu\n00:00:00.000                             : en:00:00:00.000\n00:07:20.273                             : en:00:07:20.273\n00:16:35.953                             : en:00:16:35.953\n00:25:31.989                             : en:00:25:31.989\n00:37:06.724                             : en:00:37:06.724\n00:48:00.753                             : en:00:48:00.753\n00:55:04.718                             : en:00:55:04.718\n01:08:51.461                             : en:01:08:51.461\n01:16:06.312                             : en:01:16:06.312\n01:27:29.995                             : en:01:27:29.995\n01:35:22.425                             : en:01:35:22.425\n01:41:23.035                             : en:01:41:23.035\n01:46:49.987                             : en:01:46:49.987\n01:56:24.477                             : en:01:56:24.477\n02:03:13.720                             : en:02:03:13.720\n02:10:47.673                             : en:02:10:47.673\n02:16:20.672                             : en:02:16:20.672\n02:19:51.466                             : en:02:19:51.466","torrent":{"xt":"urn:btih:08d0862ed89729a9bf2c782cc143255e41e64a60","amp;dn":"1941.1979.EXTENDED.1080p.BluRay.X264-AMIABLE","amp;tr":["udp%3A%2F%2Ftracker.openbittorrent.com%3A80","udp%3A%2F%2Fopen.demonii.com%3A1337","udp%3A%2F%2Ftracker.coppersurfer.tk%3A6969","udp%3A%2F%2Fexodus.desync.com%3A6969"],"infoHash":"08d0862ed89729a9bf2c782cc143255e41e64a60","infoHashBuffer":{"type":"Buffer","data":[8,208,134,46,216,151,41,169,191,44,120,44,193,67,37,94,65,230,74,96]},"announce":[],"urlList":[]}}